<?xml version="1.0" encoding="utf-8"?>
<svg version="1.1" xmlns="http://www.w3.org/2000/svg" xmlns:xlink="http://www.w3.org/1999/xlink" x="0px" y="0px"
	 viewBox="0 0 505.3 160.7" enable-background="new 0 0 505.3 160.7" xml:space="preserve" fill="white">
<path d="M272.6,0c-19.1,0-36.3,8.3-48.1,21.4v-17h-54.9v149.3h54.9V81.3l0,0c0-18.2,14.8-33,33.1-33
	c0.9,0,1.7,0,2.5,0.1l18.7-48.1C276.7,0.1,274.7,0,272.6,0z M78.7,0.1C57.6,0,38.1,1.7,14.6,18.7l31.5,33.4
	c12.2-10.3,49.5-18.7,52.6,6.3v0.8H62.9c-19.5,0-34.8,3.8-46,11.5C5.6,78.2,0,89.8,0,105.1c0,15.4,5.4,27.7,16.3,36.9
	c10.9,9.2,24.3,13.9,40.3,13.9c11,0,28.4-3.2,41.7-9.7c0,4.7,0,7.5,0,7.5h55V69.3C153.3,30.4,131.8,0.3,78.7,0.1z M98.5,98.4
	c0,6-3.4,10.8-7.9,14.4s-12,5.4-17.8,5.4c-5.9,0-10.4-1.1-13.6-3.4c-3.2-2.3-4.7-5.5-4.7-9.8c0-8.2,6.6-12.3,19.9-12.3h24.2v5.7
	L98.5,98.4L98.5,98.4z"/>

    <path d="M348.6,82.8c-4.3-11.5-14-37.4-16.5-43.3c-6.9-16.4-20.5-29.3-37.3-35.5l-19.3,49.6
	c5.5,3.6,9.9,8.7,12.5,14.8c1.7,4,32.9,85.3,32.9,85.3h0.1l0,0h54.9l58-149.3H379L348.6,82.8z M450.4,4.4v149.3h54.9V4.4H450.4z"/>
</svg>
